<svg version="1.1" id="Layer_1" xmlns="http://www.w3.org/2000/svg" xmlns:xlink="http://www.w3.org/1999/xlink" x="0px" y="0px"
	 width="100%" viewBox="0 0 250 250" enable-background="new 0 0 250 250" xml:space="preserve">
<path fill="#47704C" opacity="1.000000" stroke="none" 
	d="
M167.000000,251.000000 
	C111.333336,251.000000 56.166672,251.000000 1.000007,251.000000 
	C1.000005,167.666672 1.000005,84.333351 1.000003,1.000019 
	C84.333321,1.000012 167.666641,1.000012 250.999969,1.000006 
	C250.999969,84.333313 250.999969,167.666626 250.999985,250.999969 
	C223.166672,251.000000 195.333328,251.000000 167.000000,251.000000 
M16.978508,131.787964 
	C16.949095,132.500031 16.919683,133.212082 16.129833,133.977173 
	C7.549713,135.403625 12.993630,141.445587 11.958724,145.913513 
	C23.891649,146.292709 35.481461,147.225403 47.034958,146.893570 
	C63.648743,146.416382 80.236809,145.030411 96.834290,144.007004 
	C101.763771,143.703049 106.694382,143.386093 111.613449,142.950546 
	C126.151291,141.663345 140.683609,140.313843 155.695480,138.690918 
	C156.146957,138.112625 156.598434,137.534317 157.801178,137.316238 
	C158.396805,137.541336 159.004242,137.989487 159.586319,137.958649 
	C171.726166,137.315491 183.868774,136.702576 195.998306,135.895432 
	C202.017090,135.494934 208.010818,134.717865 213.974731,134.874954 
	C214.640701,136.174637 215.306686,137.474304 215.972672,138.773987 
	C217.140289,137.905106 218.382309,137.116730 219.445038,136.134384 
	C220.001358,135.620148 220.242813,134.765289 221.516556,134.024246 
	C227.489365,133.355881 233.533752,132.855194 238.056808,127.174942 
	C236.272079,127.050682 235.135605,126.971558 234.066818,126.371300 
	C234.089966,126.197662 234.113098,126.024033 234.965332,125.982811 
	C237.300507,125.511040 239.970291,125.595139 241.892868,124.437897 
	C244.815475,122.678719 246.543518,113.246529 244.801971,109.773529 
	C242.789886,105.761055 239.200912,107.743958 236.112488,107.946419 
	C235.508911,107.985992 234.886627,107.740395 234.212341,107.615051 
	C234.134979,106.739433 234.019073,106.091339 234.029541,105.445282 
	C234.166367,96.985237 234.147461,96.595085 225.790909,97.095261 
	C217.456360,97.594131 209.199463,99.390106 200.864914,99.888664 
	C188.955658,100.601044 177.007568,100.684776 165.074539,100.973946 
	C149.811752,101.343811 134.534256,101.366821 119.287842,102.073212 
	C106.632767,102.659538 94.021652,104.137596 81.376266,105.004829 
	C65.917625,106.065010 50.443542,106.899986 35.429771,107.357178 
	C38.501305,104.848961 41.879745,102.629715 44.574997,99.767197 
	C49.011345,95.055527 49.326424,87.184868 45.826279,81.698502 
	C42.929550,77.157974 36.833630,75.167145 30.169144,76.769867 
	C19.831293,74.020515 9.272024,82.140442 7.040894,95.139214 
	C7.328029,97.060020 7.287777,99.107140 7.970012,100.875519 
	C9.419368,104.632324 11.244645,108.244102 12.153915,112.010643 
	C10.769981,113.352409 8.432644,114.526299 8.161863,116.064079 
	C6.747926,124.093956 7.552595,125.287941 15.027498,129.553238 
	C15.670897,130.061203 16.314295,130.569153 16.978508,131.787964 
M55.996849,65.278709 
	C55.985161,63.954666 56.396713,62.423359 55.871468,61.350819 
	C54.856857,59.279018 53.689217,56.589050 51.875492,55.812496 
	C50.315411,55.144539 47.392715,56.275639 45.733784,57.504173 
	C42.049000,60.232975 40.928753,66.504913 43.295219,71.084229 
	C44.142811,72.724396 46.284622,74.605469 47.923607,74.690903 
	C49.862801,74.791992 52.363678,73.505371 53.755428,72.012985 
	C55.079182,70.593513 55.287060,68.133408 55.996849,65.278709 
M32.833267,70.912704 
	C38.486237,70.826378 40.591118,68.389671 39.859035,61.833900 
	C39.669758,60.138927 37.999088,57.631184 36.596107,57.312172 
	C35.048077,56.960175 32.286278,58.208309 31.354200,59.619045 
	C29.000183,63.181976 29.268661,67.074677 32.833267,70.912704 
M24.220877,72.909729 
	C25.469776,70.104233 27.013660,67.375595 27.777449,64.443718 
	C27.990602,63.625511 26.084673,61.813850 24.797758,61.208130 
	C23.997265,60.831356 22.170238,61.526268 21.432795,62.322571 
	C18.677906,65.297340 19.790937,70.650742 24.220877,72.909729 
M12.316298,73.692001 
	C13.936103,74.204201 15.555908,74.716400 17.175714,75.228600 
	C17.672121,72.944031 18.646267,70.613197 18.431730,68.397469 
	C18.344913,67.500847 15.663699,66.855438 14.163081,66.095718 
	C13.444482,67.872604 12.689608,69.636276 12.033847,71.436058 
	C11.878034,71.863708 12.054106,72.412270 12.316298,73.692001 
M9.391859,71.968391 
	C4.967228,70.730934 4.371826,71.758904 5.509451,78.671410 
	C10.228648,78.699448 11.340536,77.146881 9.391859,71.968391 
z"/>
<path fill="#FAD8B7" opacity="1.000000" stroke="none" 
	d="
M214.015884,134.111130 
	C208.010818,134.717865 202.017090,135.494934 195.998306,135.895432 
	C183.868774,136.702576 171.726166,137.315491 159.586319,137.958649 
	C159.004242,137.989487 158.396805,137.541336 157.352417,136.816559 
	C156.996506,135.924545 157.089325,135.532211 157.538452,135.075378 
	C159.052170,133.909805 160.449371,132.968307 161.312622,131.671402 
	C162.719772,129.557297 163.778366,127.211182 165.133301,125.275192 
	C166.743942,126.970482 168.205322,128.353546 169.666702,129.736603 
	C170.780991,128.480774 171.895294,127.224937 173.426971,125.967148 
	C174.968979,133.040283 175.525253,133.447266 179.935730,130.052795 
	C180.816742,129.263351 181.408203,128.631042 182.082825,127.816223 
	C182.321136,127.357552 182.550995,127.262970 182.874176,127.523407 
	C182.892807,127.696823 183.125671,127.956566 183.214172,128.238480 
	C183.854095,128.643753 184.405518,128.767120 185.204956,129.116440 
	C186.308548,129.559280 187.164124,129.776154 188.300537,130.181625 
	C189.385910,129.936508 190.190430,129.502792 190.994949,129.069092 
	C188.736938,125.508774 191.518356,123.028625 192.805389,120.164124 
	C194.080902,117.325340 195.049072,114.348465 196.610367,110.220314 
	C190.869980,112.668167 190.809067,117.408836 188.663391,120.852386 
	C187.527771,120.627327 186.677963,120.436577 185.517502,120.406754 
	C184.143402,122.056488 183.079971,123.545296 181.725830,125.118637 
	C181.017288,126.104134 180.599442,127.005096 179.944275,128.128021 
	C179.471115,128.945175 179.235260,129.540405 178.583405,130.277924 
	C178.164108,127.745193 177.513794,124.856422 178.310211,122.445580 
	C179.485489,118.887871 181.690369,115.670288 183.456772,112.307854 
	C183.146362,111.932289 182.835953,111.556717 182.525558,111.181145 
	C181.077591,112.217079 179.171906,112.963371 178.289795,114.357368 
	C176.991837,116.408485 176.424179,118.921707 175.292480,121.057266 
	C174.157104,120.415039 173.150803,119.418938 172.414764,119.589447 
	C169.904251,120.171021 167.488907,121.163376 164.888641,121.697166 
	C164.135406,120.252998 163.530792,119.110611 162.268356,116.725357 
	C159.309402,120.083961 156.669846,123.080025 153.688171,125.823265 
	C153.656036,123.857941 153.966034,122.145439 154.243408,120.613159 
	C148.329071,118.020638 148.619568,123.737656 145.565308,126.319099 
	C147.762802,126.120438 149.164261,125.993736 150.565720,125.867035 
	C150.405823,126.162788 150.245926,126.458534 150.086014,126.754288 
	C151.413696,127.237213 152.741364,127.720139 154.372559,128.067810 
	C158.156708,128.764572 158.486862,129.231140 157.784805,131.736954 
	C157.468430,132.866150 157.458511,134.081207 157.007553,135.362701 
	C156.209747,136.641663 155.713913,137.815201 155.218079,138.988739 
	C140.683609,140.313843 126.151291,141.663345 111.613449,142.950546 
	C106.694382,143.386093 101.763771,143.703049 96.834290,144.007004 
	C80.236809,145.030411 63.648743,146.416382 47.034958,146.893570 
	C35.481461,147.225403 23.891649,146.292709 11.958724,145.913513 
	C12.993630,141.445587 7.549713,135.403625 16.661163,134.326340 
	C17.094109,136.663620 16.995728,138.651733 16.868675,141.219223 
	C20.921724,134.848831 21.750546,130.555908 21.141043,121.388779 
	C22.329096,120.833626 23.295076,120.475311 24.131622,120.165009 
	C23.185339,119.364281 21.860327,118.761406 21.861570,118.161278 
	C21.870686,113.769791 25.207350,112.502892 28.550087,111.811218 
	C27.001410,110.849129 25.554390,109.950180 24.540918,109.025879 
	C27.001179,108.951309 29.027889,108.902100 31.361763,108.921799 
	C32.145382,108.681862 32.621838,108.373032 33.054634,108.083145 
	C33.010975,108.102089 33.047112,108.190140 33.363445,108.102386 
	C34.111897,107.953880 34.544018,107.893112 34.976135,107.832352 
	C50.443542,106.899986 65.917625,106.065010 81.376266,105.004829 
	C94.021652,104.137596 106.632767,102.659538 119.287842,102.073212 
	C134.534256,101.366821 149.811752,101.343811 165.074539,100.973946 
	C177.007568,100.684776 188.955658,100.601044 200.864914,99.888664 
	C209.199463,99.390106 217.456360,97.594131 225.790909,97.095261 
	C234.147461,96.595085 234.166367,96.985237 234.029541,105.445282 
	C234.019073,106.091339 234.134979,106.739433 234.212341,107.615051 
	C234.886627,107.740395 235.508911,107.985992 236.112488,107.946419 
	C239.200912,107.743958 242.789886,105.761055 244.801971,109.773529 
	C246.543518,113.246529 244.815475,122.678719 241.892868,124.437897 
	C239.970291,125.595139 237.300507,125.511040 234.606674,125.623367 
	C234.343796,125.129730 234.477051,125.007416 234.524460,124.857895 
	C234.568893,124.717712 234.526047,124.412170 234.515549,124.411896 
	C233.700836,124.390686 232.885544,124.392441 231.816986,124.392441 
	C232.589478,122.286217 233.282135,120.397652 233.974792,118.509094 
	C233.622299,118.335640 233.269806,118.162186 232.917313,117.988731 
	C230.962906,119.523720 229.008484,121.058716 227.129074,122.534805 
	C228.278976,126.147926 230.288345,127.930740 233.999130,126.892426 
	C235.135605,126.971558 236.272079,127.050682 238.056808,127.174942 
	C233.533752,132.855194 227.489365,133.355881 220.982117,133.728363 
	C222.005646,130.968658 223.563629,128.504807 225.378967,125.880280 
	C224.865036,125.455528 224.093750,125.191444 223.183914,125.308075 
	C223.297333,125.786057 223.549301,125.883331 223.823853,125.934547 
	C223.846451,125.888489 223.896179,125.798737 224.026627,125.400375 
	C223.614670,122.617302 223.072266,120.232597 222.216553,116.470467 
	C219.612564,119.091591 217.957077,121.012733 216.030563,122.606224 
	C214.778381,123.641922 213.194641,124.680962 211.649658,124.884262 
	C206.584549,125.550789 207.426239,121.266418 206.663162,117.298294 
	C205.490204,119.460823 204.790802,120.750290 203.880096,121.813797 
	C203.260284,120.716629 202.851776,119.845413 201.998367,118.025391 
	C199.092209,120.633621 196.425140,122.854439 194.015915,125.326569 
	C193.496719,125.859322 193.907532,127.298439 193.889954,128.320053 
	C194.844437,128.051147 196.435074,128.032013 196.654068,127.474319 
	C198.637085,122.423691 201.763840,122.760040 205.346313,125.615189 
	C204.885803,126.291748 204.589783,126.655869 203.930145,127.020874 
	C199.862259,127.039589 199.797821,128.556046 202.083893,131.344635 
	C205.188431,132.657089 206.891846,131.797165 208.433167,128.852798 
	C209.084076,127.609360 212.315063,127.091820 214.208054,127.369736 
	C215.256683,127.523689 219.043396,127.594872 217.017822,131.194733 
	C216.388763,131.849518 216.044586,132.367706 215.460510,132.999176 
	C214.819061,133.445328 214.417480,133.778229 214.015884,134.111130 
M48.356380,124.073135 
	C47.802338,122.162117 47.248295,120.251091 46.290615,116.947838 
	C44.616604,122.673187 43.304966,127.159195 41.984394,131.675735 
	C48.874336,133.368790 47.819061,128.134140 49.755650,124.955200 
	C49.766869,126.633522 49.906384,128.323227 49.758709,129.987457 
	C49.546349,132.380768 49.124966,134.755539 48.792793,137.138214 
	C49.277206,137.201828 49.761620,137.265427 50.246033,137.329025 
	C51.178200,134.256561 52.110371,131.184113 53.751984,127.832253 
	C55.339325,127.690971 57.332348,128.096329 58.423550,127.286522 
	C60.286736,125.903793 61.584274,123.758865 63.340630,122.772987 
	C63.141769,125.827827 62.942909,128.882675 62.744049,131.937515 
	C63.272503,132.024094 63.800957,132.110672 64.329414,132.197235 
	C67.136093,125.264046 69.942772,118.330856 73.291504,110.058670 
	C71.180611,111.583107 69.451492,112.347908 68.440651,113.664276 
	C66.440331,116.269196 64.836990,119.178970 62.272133,121.753235 
	C61.937473,120.161354 61.602814,118.569481 61.126133,116.302048 
	C59.002766,119.052254 57.534428,120.954056 55.992264,122.111290 
	C55.499134,120.722954 55.006004,119.334618 54.657406,118.353195 
	C52.638416,120.508537 50.806190,122.464500 48.356380,124.073135 
M90.127861,129.763290 
	C89.548302,131.432419 88.968735,133.101532 88.389168,134.770660 
	C88.664619,135.090103 88.940063,135.409546 89.215515,135.728989 
	C90.496124,134.607727 92.097977,133.689468 92.969727,132.309860 
	C93.897652,130.841385 94.134369,128.936127 95.165375,126.933571 
	C95.492897,124.020264 95.820427,121.106949 96.147949,118.193642 
	C95.500648,117.824463 94.853348,117.455284 94.206047,117.086105 
	C91.853615,119.516861 89.258080,121.778191 87.348694,124.517746 
	C86.954926,125.082718 89.118675,127.430183 90.127861,129.763290 
M79.146500,114.951279 
	C79.444908,114.018524 79.826210,113.102318 80.016701,112.148026 
	C80.182541,111.317177 80.132957,110.443329 80.178574,109.588470 
	C79.305115,110.024826 78.358505,110.362007 77.584366,110.933014 
	C77.082680,111.303062 76.752365,111.978569 76.483414,112.579086 
	C74.793060,116.353233 72.584045,120.017235 71.678253,123.976555 
	C71.099960,126.504303 72.469101,129.477570 73.030136,132.614685 
	C74.536079,127.853783 75.634438,124.129639 76.908447,120.466591 
	C77.490601,118.792793 78.418938,117.239410 79.146500,114.951279 
M143.160065,116.344505 
	C141.935867,119.402748 140.485596,122.395065 139.567612,125.542618 
	C138.963882,127.612755 139.127747,129.906769 138.947876,132.100525 
	C142.055283,126.886833 144.432892,121.818062 146.457031,116.611877 
	C146.956360,115.327599 146.305847,113.596275 146.183929,112.070465 
	C145.013184,112.856331 143.840546,113.639420 142.674210,114.431808 
	C142.540298,114.522797 142.441605,114.665672 142.326599,114.784485 
	C142.330338,114.758400 142.334076,114.732315 142.337799,114.706223 
	C142.603745,115.054955 142.869690,115.403687 143.160065,116.344505 
M137.639496,121.400696 
	C138.058472,118.222504 138.477432,115.044312 138.896408,111.866112 
	C138.441956,111.779213 137.987518,111.692314 137.533066,111.605415 
	C135.424866,117.258713 133.316666,122.912010 131.208466,128.565308 
	C131.753235,128.802887 132.298004,129.040466 132.842773,129.278046 
	C134.303970,126.844116 135.765167,124.410179 137.639496,121.400696 
M39.346146,120.736610 
	C39.284458,119.916672 39.222771,119.096741 39.161083,118.276802 
	C38.866161,118.245041 38.571236,118.213280 38.276310,118.181526 
	C37.215466,122.646866 36.154617,127.112206 35.061306,131.714218 
	C38.745731,133.103439 40.396748,130.605453 40.854088,127.834648 
	C41.180878,125.854767 39.976692,123.622192 39.346146,120.736610 
M117.183556,122.785599 
	C116.098526,124.348938 115.013489,125.912285 113.928444,127.475616 
	C114.996803,128.018234 116.086693,129.059601 117.129677,129.014542 
	C121.022179,128.846436 122.178474,125.973122 123.147232,121.434166 
	C120.938278,121.965256 119.446281,122.323975 117.183556,122.785599 
M82.044357,120.498352 
	C80.940338,122.456581 79.836319,124.414803 78.714180,126.405159 
	C80.363304,127.606987 81.693817,128.576614 82.298256,129.017120 
	C83.424469,126.630745 84.339539,124.870934 85.090607,123.043716 
	C85.693779,121.576324 86.098213,120.027237 86.590836,118.514412 
	C85.223152,118.970352 83.855469,119.426292 82.044357,120.498352 
M198.497330,118.530350 
	C198.497330,118.530350 198.480240,118.486725 198.497330,118.530350 
M198.533325,129.504242 
	C198.533325,129.504242 198.483688,129.524612 198.533325,129.504242 
z"/>
<path fill="#FCDBBA" opacity="1.000000" stroke="none" 
	d="
M7.154637,94.467690 
	C9.272024,82.140442 19.831293,74.020515 30.895452,76.942581 
	C33.805721,79.053421 35.989681,80.991547 37.701851,82.960464 
	C34.734810,82.996231 32.233025,82.885963 29.745466,83.026848 
	C20.679996,83.540268 11.011093,89.368629 15.189696,102.440598 
	C15.873035,104.578300 16.297775,106.798660 16.537632,108.856018 
	C13.207031,103.976715 10.180834,99.222198 7.154637,94.467690 
z"/>
<path fill="#232222" opacity="1.000000" stroke="none" 
	d="
M55.991207,65.704781 
	C55.287060,68.133408 55.079182,70.593513 53.755428,72.012985 
	C52.363678,73.505371 49.862801,74.791992 47.923607,74.690903 
	C46.284622,74.605469 44.142811,72.724396 43.295219,71.084229 
	C40.928753,66.504913 42.049000,60.232975 45.733784,57.504173 
	C47.392715,56.275639 50.315411,55.144539 51.875492,55.812496 
	C53.689217,56.589050 54.856857,59.279018 55.871468,61.350819 
	C56.396713,62.423359 55.985161,63.954666 55.991207,65.704781 
z"/>
<path fill="#242323" opacity="1.000000" stroke="none" 
	d="
M38.173641,82.929672 
	C35.989681,80.991547 33.805721,79.053421 31.288990,76.978737 
	C36.833630,75.167145 42.929550,77.157974 45.826279,81.698502 
	C49.326424,87.184868 49.011345,95.055527 44.574997,99.767197 
	C41.879745,102.629715 38.501305,104.848961 35.202953,107.594765 
	C34.544018,107.893112 34.111897,107.953880 33.324471,107.738792 
	C34.187771,105.923683 35.353893,104.339226 36.633812,102.852753 
	C43.212479,95.212448 43.969700,91.122917 39.904655,84.563156 
	C39.610638,84.105965 39.308147,83.983902 39.002373,83.929733 
	C38.999084,83.997643 39.134895,84.004158 39.252262,83.597244 
	C38.917099,83.079224 38.464573,82.968124 38.034149,82.915878 
	C38.056255,82.974731 38.173641,82.929672 38.173641,82.929672 
z"/>
<path fill="#383531" opacity="1.000000" stroke="none" 
	d="
M225.121613,126.040955 
	C223.563629,128.504807 222.005646,130.968658 220.537048,133.748383 
	C220.242813,134.765289 220.001358,135.620148 219.445038,136.134384 
	C218.382309,137.116730 217.140289,137.905106 215.972672,138.773987 
	C215.306686,137.474304 214.640701,136.174637 213.995300,134.493042 
	C214.417480,133.778229 214.819061,133.445328 215.741241,132.991821 
	C216.846054,132.609207 217.430252,132.347198 218.014435,132.085175 
	C217.777176,131.742844 217.539932,131.400497 217.302673,131.058167 
	C219.043396,127.594872 215.256683,127.523689 214.208054,127.369736 
	C212.315063,127.091820 209.084076,127.609360 208.433167,128.852798 
	C206.891846,131.797165 205.188431,132.657089 202.401886,131.200439 
	C203.146500,129.467575 203.720139,128.243790 204.293777,127.019989 
	C204.589783,126.655869 204.885803,126.291748 205.328568,125.575317 
	C205.475311,125.223015 205.394440,125.190575 205.472168,124.970322 
	C205.511963,124.409637 205.342957,124.156471 205.006409,123.707138 
	C204.677063,122.962387 204.384216,122.501068 204.091385,122.039757 
	C204.790802,120.750290 205.490204,119.460823 206.663162,117.298294 
	C207.426239,121.266418 206.584549,125.550789 211.649658,124.884262 
	C213.194641,124.680962 214.778381,123.641922 216.030563,122.606224 
	C217.957077,121.012733 219.612564,119.091591 222.216553,116.470467 
	C223.072266,120.232597 223.614670,122.617302 223.563736,125.168381 
	C222.646927,125.223068 222.323471,125.111382 221.830551,124.738510 
	C220.398758,124.331711 219.136398,124.186104 217.874054,124.040497 
	C217.928314,124.680428 217.982574,125.320366 218.036835,125.960297 
	C219.357895,125.640305 220.678940,125.320305 222.277451,125.198792 
	C222.970352,125.591705 223.385803,125.786156 223.801254,125.980606 
	C223.549301,125.883331 223.297333,125.786057 223.590515,125.660278 
	C224.464325,125.768166 224.792953,125.904556 225.121613,126.040955 
z"/>
<path fill="#FFDCBA" opacity="1.000000" stroke="none" 
	d="
M32.465797,70.728256 
	C29.268661,67.074677 29.000183,63.181976 31.354200,59.619045 
	C32.286278,58.208309 35.048077,56.960175 36.596107,57.312172 
	C37.999088,57.631184 39.669758,60.138927 39.859035,61.833900 
	C40.591118,68.389671 38.486237,70.826378 32.465797,70.728256 
z"/>
<path fill="#FCDBBA" opacity="1.000000" stroke="none" 
	d="
M14.893093,128.905960 
	C7.552595,125.287941 6.747926,124.093956 8.161863,116.064079 
	C8.432644,114.526299 10.769981,113.352409 12.789949,112.237503 
	C14.486016,115.404137 15.546049,118.343903 16.702278,121.556854 
	C16.163345,124.188675 15.528218,126.547318 14.893093,128.905960 
z"/>
<path fill="#40B6F9" opacity="1.000000" stroke="none" 
	d="
M16.606083,121.283676 
	C15.546049,118.343903 14.486016,115.404137 13.170900,112.189850 
	C11.244645,108.244102 9.419368,104.632324 7.970012,100.875519 
	C7.287777,99.107140 7.328029,97.060020 7.097765,94.803452 
	C10.180834,99.222198 13.207031,103.976715 16.695656,109.162437 
	C17.555092,110.159805 17.952103,110.725960 18.441193,111.615913 
	C21.024591,115.700699 19.471476,118.627518 16.606083,121.283676 
z"/>
<path fill="#363838" opacity="1.000000" stroke="none" 
	d="
M16.702278,121.556854 
	C19.471476,118.627518 21.024591,115.700699 18.794622,111.599785 
	C20.739771,110.523643 22.423571,109.787445 24.107368,109.051239 
	C25.554390,109.950180 27.001410,110.849129 28.550087,111.811218 
	C25.207350,112.502892 21.870686,113.769791 21.861570,118.161278 
	C21.860327,118.761406 23.185339,119.364281 24.131622,120.165009 
	C23.295076,120.475311 22.329096,120.833626 20.886292,121.671265 
	C19.258875,125.126091 18.108282,128.101608 16.957691,131.077118 
	C16.314295,130.569153 15.670897,130.061203 14.960295,129.229599 
	C15.528218,126.547318 16.163345,124.188675 16.702278,121.556854 
z"/>
<path fill="#FFDCBA" opacity="1.000000" stroke="none" 
	d="
M23.826982,72.936760 
	C19.790937,70.650742 18.677906,65.297340 21.432795,62.322571 
	C22.170238,61.526268 23.997265,60.831356 24.797758,61.208130 
	C26.084673,61.813850 27.990602,63.625511 27.777449,64.443718 
	C27.013660,67.375595 25.469776,70.104233 23.826982,72.936760 
z"/>
<path fill="#38B6FF" opacity="1.000000" stroke="none" 
	d="
M12.196908,73.298615 
	C12.054106,72.412270 11.878034,71.863708 12.033847,71.436058 
	C12.689608,69.636276 13.444482,67.872604 14.163080,66.095718 
	C15.663699,66.855438 18.344913,67.500847 18.431730,68.397469 
	C18.646267,70.613197 17.672121,72.944031 17.175714,75.228600 
	C15.555908,74.716400 13.936103,74.204201 12.196908,73.298615 
z"/>
<path fill="#40B6F9" opacity="1.000000" stroke="none" 
	d="
M16.968100,131.432541 
	C18.108282,128.101608 19.258875,125.126091 20.664219,121.868103 
	C21.750546,130.555908 20.921724,134.848831 16.868675,141.219223 
	C16.995728,138.651733 17.094109,136.663620 17.041382,134.299835 
	C16.919683,133.212082 16.949095,132.500031 16.968100,131.432541 
z"/>
<path fill="#49433D" opacity="1.000000" stroke="none" 
	d="
M234.032974,126.631866 
	C230.288345,127.930740 228.278976,126.147926 227.129074,122.534805 
	C229.008484,121.058716 230.962906,119.523720 232.917313,117.988731 
	C233.269806,118.162186 233.622299,118.335640 233.974792,118.509094 
	C233.282135,120.397652 232.589478,122.286217 231.816986,124.392441 
	C232.885544,124.392441 233.700836,124.390686 234.515549,124.411896 
	C234.526047,124.412170 234.568893,124.717712 234.524460,124.857895 
	C234.477051,125.007416 234.343796,125.129730 234.192123,125.557159 
	C234.113098,126.024033 234.089966,126.197662 234.032974,126.631866 
z"/>
<path fill="#FF1616" opacity="1.000000" stroke="none" 
	d="
M9.635247,72.269485 
	C11.340536,77.146881 10.228648,78.699448 5.509451,78.671410 
	C4.371826,71.758904 4.967228,70.730934 9.635247,72.269485 
z"/>
<path fill="#49433D" opacity="1.000000" stroke="none" 
	d="
M157.182144,135.139862 
	C157.089325,135.532211 156.996506,135.924545 156.976807,136.636459 
	C156.598434,137.534317 156.146957,138.112625 155.456787,138.839828 
	C155.713913,137.815201 156.209747,136.641663 156.972992,135.336288 
	C157.240433,135.204453 157.182144,135.139862 157.182144,135.139862 
z"/>
<path fill="#47704C" opacity="1.000000" stroke="none" 
	d="
M24.540920,109.025879 
	C22.423571,109.787445 20.739771,110.523643 18.702541,111.275978 
	C17.952103,110.725960 17.555092,110.159805 17.000061,109.287231 
	C16.297775,106.798660 15.873035,104.578300 15.189696,102.440598 
	C11.011093,89.368629 20.679996,83.540268 29.745466,83.026848 
	C32.233025,82.885963 34.734810,82.996231 37.701851,82.960464 
	C38.173641,82.929672 38.056255,82.974731 38.076080,83.220505 
	C38.442238,83.645569 38.788567,83.824867 39.134895,84.004166 
	C39.134895,84.004158 38.999084,83.997643 39.027153,84.192032 
	C39.335541,84.557053 39.615860,84.727669 39.896183,84.898293 
	C43.969700,91.122917 43.212479,95.212448 36.633812,102.852753 
	C35.353893,104.339226 34.187771,105.923683 33.008133,107.826538 
	C33.047112,108.190140 33.010975,108.102089 32.761948,108.010559 
	C32.026817,108.230316 31.540709,108.541611 31.054600,108.852905 
	C29.027889,108.902100 27.001179,108.951309 24.540920,109.025879 
z"/>
<path fill="#49433D" opacity="1.000000" stroke="none" 
	d="
M157.274994,135.230865 
	C157.458511,134.081207 157.468430,132.866150 157.784805,131.736954 
	C158.486862,129.231140 158.156708,128.764572 154.355408,127.779968 
	C154.027939,127.435310 154.021118,127.243210 154.063126,126.777115 
	C154.092056,126.318657 154.072128,126.134193 154.055176,125.982788 
	C154.058151,126.015839 154.030289,126.076088 154.030289,126.076096 
	C156.669846,123.080025 159.309402,120.083961 162.268356,116.725357 
	C163.530792,119.110611 164.135406,120.252998 164.821503,122.064629 
	C164.929993,123.476906 164.957001,124.219933 164.984039,124.962967 
	C163.778366,127.211182 162.719772,129.557297 161.312622,131.671402 
	C160.449371,132.968307 159.052170,133.909805 157.538452,135.075378 
	C157.182144,135.139862 157.240433,135.204453 157.274994,135.230865 
z"/>
<path fill="#3B3733" opacity="1.000000" stroke="none" 
	d="
M175.545425,121.238083 
	C176.424179,118.921707 176.991837,116.408485 178.289795,114.357368 
	C179.171906,112.963371 181.077591,112.217079 182.525558,111.181145 
	C182.835953,111.556717 183.146362,111.932289 183.456772,112.307854 
	C181.690369,115.670288 179.485489,118.887871 178.310211,122.445580 
	C177.513794,124.856422 178.164108,127.745193 178.733414,130.398010 
	C179.299454,130.375809 179.646179,130.209946 179.646179,130.209946 
	C175.525253,133.447266 174.968979,133.040283 173.387344,125.728188 
	C172.930344,125.491173 172.817947,125.019936 172.992432,124.821304 
	C173.220169,124.454666 173.273422,124.286659 173.610580,123.990250 
	C174.444794,122.987259 174.995117,122.112671 175.545425,121.238083 
z"/>
<path fill="#46403A" opacity="1.000000" stroke="none" 
	d="
M63.069530,121.962708 
	C64.836990,119.178970 66.440331,116.269196 68.440651,113.664276 
	C69.451492,112.347908 71.180611,111.583107 73.291504,110.058670 
	C69.942772,118.330856 67.136093,125.264046 64.329414,132.197235 
	C63.800957,132.110672 63.272503,132.024094 62.744049,131.937515 
	C62.942909,128.882675 63.141769,125.827827 63.204853,122.348282 
	C63.069077,121.923569 63.069530,121.962708 63.069530,121.962708 
z"/>
<path fill="#383531" opacity="1.000000" stroke="none" 
	d="
M79.168381,115.291344 
	C78.418938,117.239410 77.490601,118.792793 76.908447,120.466591 
	C75.634438,124.129639 74.536079,127.853783 73.030136,132.614685 
	C72.469101,129.477570 71.099960,126.504303 71.678253,123.976555 
	C72.584045,120.017235 74.793060,116.353233 76.483414,112.579086 
	C76.752365,111.978569 77.082680,111.303062 77.584366,110.933014 
	C78.358505,110.362007 79.305115,110.024826 80.178574,109.588470 
	C80.132957,110.443329 80.182541,111.317177 80.016701,112.148026 
	C79.826210,113.102318 79.444908,114.018524 79.168381,115.291344 
z"/>
<path fill="#49433D" opacity="1.000000" stroke="none" 
	d="
M90.103638,128.956085 
	C89.118675,127.430183 86.954926,125.082718 87.348694,124.517746 
	C89.258080,121.778191 91.853615,119.516861 94.206047,117.086105 
	C94.853348,117.455284 95.500648,117.824463 96.147949,118.193642 
	C95.820427,121.106949 95.492897,124.020264 94.545242,127.044739 
	C92.651283,127.755959 91.377464,128.356018 90.103638,128.956085 
z"/>
<path fill="#3B3733" opacity="1.000000" stroke="none" 
	d="
M143.147842,116.048462 
	C142.869690,115.403687 142.603745,115.054955 142.337799,114.706223 
	C142.334076,114.732315 142.330338,114.758400 142.326599,114.784485 
	C142.441605,114.665672 142.540298,114.522797 142.674210,114.431808 
	C143.840546,113.639420 145.013184,112.856331 146.183929,112.070465 
	C146.305847,113.596275 146.956360,115.327599 146.457031,116.611877 
	C144.432892,121.818062 142.055283,126.886833 138.947876,132.100525 
	C139.127747,129.906769 138.963882,127.612755 139.567612,125.542618 
	C140.485596,122.395065 141.935867,119.402748 143.147842,116.048462 
z"/>
<path fill="#49433D" opacity="1.000000" stroke="none" 
	d="
M63.094242,121.928833 
	C61.584274,123.758865 60.286736,125.903793 58.423550,127.286522 
	C57.332348,128.096329 55.339325,127.690971 53.403149,127.610283 
	C54.058235,125.877495 55.062160,124.366676 56.066086,122.855865 
	C57.534428,120.954056 59.002766,119.052254 61.126133,116.302048 
	C61.602814,118.569481 61.937473,120.161354 62.670830,121.857971 
	C63.069530,121.962708 63.069077,121.923569 63.094242,121.928833 
z"/>
<path fill="#F6D5B5" opacity="1.000000" stroke="none" 
	d="
M175.292480,121.057266 
	C174.995117,122.112671 174.444794,122.987259 173.313446,123.913071 
	C171.931366,123.478500 171.130325,122.992699 170.000000,122.307198 
	C170.000000,123.847649 170.000000,124.923676 169.770157,126.054932 
	C169.261551,126.406815 168.982788,126.703453 168.704025,127.000092 
	C168.810455,127.095909 168.916870,127.191727 169.023285,127.287552 
	C169.348862,126.858467 169.674423,126.429390 170.297073,125.955635 
	C171.335419,125.613953 172.076675,125.316948 172.817947,125.019936 
	C172.817947,125.019936 172.930344,125.491173 172.969971,125.730133 
	C171.895294,127.224937 170.780991,128.480774 169.666702,129.736603 
	C168.205322,128.353546 166.743942,126.970482 165.133301,125.275192 
	C164.957001,124.219933 164.929993,123.476906 164.970108,122.366417 
	C167.488907,121.163376 169.904251,120.171021 172.414764,119.589447 
	C173.150803,119.418938 174.157104,120.415039 175.292480,121.057266 
z"/>
<path fill="#3B3733" opacity="1.000000" stroke="none" 
	d="
M137.432922,121.688477 
	C135.765167,124.410179 134.303970,126.844116 132.842773,129.278046 
	C132.298004,129.040466 131.753235,128.802887 131.208466,128.565308 
	C133.316666,122.912010 135.424866,117.258713 137.533066,111.605415 
	C137.987518,111.692314 138.441956,111.779213 138.896408,111.866112 
	C138.477432,115.044312 138.058472,118.222504 137.432922,121.688477 
z"/>
<path fill="#46403A" opacity="1.000000" stroke="none" 
	d="
M56.029175,122.483574 
	C55.062160,124.366676 54.058235,125.877495 53.048428,127.749985 
	C52.110371,131.184113 51.178200,134.256561 50.246033,137.329025 
	C49.761620,137.265427 49.277206,137.201828 48.792793,137.138214 
	C49.124966,134.755539 49.546349,132.380768 49.758709,129.987457 
	C49.906384,128.323227 49.766869,126.633522 49.343815,124.821800 
	C48.931980,124.688400 48.973965,124.420464 48.973969,124.420464 
	C50.806190,122.464500 52.638416,120.508537 54.657406,118.353195 
	C55.006004,119.334618 55.499134,120.722954 56.029175,122.483574 
z"/>
<path fill="#383531" opacity="1.000000" stroke="none" 
	d="
M188.949203,120.886696 
	C190.809067,117.408836 190.869980,112.668167 196.610367,110.220314 
	C195.049072,114.348465 194.080902,117.325340 192.805389,120.164124 
	C191.518356,123.028625 188.736938,125.508774 190.994949,129.069092 
	C190.190430,129.502792 189.385910,129.936508 188.289703,129.829956 
	C187.966858,128.586960 187.935669,127.884239 187.979950,126.788422 
	C188.353348,124.559113 188.651276,122.722908 188.949203,120.886696 
z"/>
<path fill="#383531" opacity="1.000000" stroke="none" 
	d="
M48.665173,124.246796 
	C48.973965,124.420464 48.931980,124.688400 48.957432,124.821579 
	C47.819061,128.134140 48.874336,133.368790 41.984394,131.675735 
	C43.304966,127.159195 44.616604,122.673187 46.290615,116.947838 
	C47.248295,120.251091 47.802338,122.162117 48.665173,124.246796 
z"/>
<path fill="#3B3733" opacity="1.000000" stroke="none" 
	d="
M39.400894,121.119492 
	C39.976692,123.622192 41.180878,125.854767 40.854088,127.834648 
	C40.396748,130.605453 38.745731,133.103439 35.061306,131.714218 
	C36.154617,127.112206 37.215466,122.646866 38.276310,118.181526 
	C38.571236,118.213280 38.866161,118.245041 39.161083,118.276802 
	C39.222771,119.096741 39.284458,119.916672 39.400894,121.119492 
z"/>
<path fill="#49433D" opacity="1.000000" stroke="none" 
	d="
M117.568924,122.734146 
	C119.446281,122.323975 120.938278,121.965256 123.147232,121.434166 
	C122.178474,125.973122 121.022179,128.846436 117.129677,129.014542 
	C116.086693,129.059601 114.996803,128.018234 113.928452,127.475616 
	C115.013489,125.912285 116.098526,124.348938 117.568924,122.734146 
z"/>
<path fill="#46403A" opacity="1.000000" stroke="none" 
	d="
M154.014282,127.051102 
	C154.021118,127.243210 154.027939,127.435310 154.051880,127.915237 
	C152.741364,127.720139 151.413696,127.237213 150.086014,126.754288 
	C150.245926,126.458534 150.405823,126.162788 150.565720,125.867035 
	C149.164261,125.993736 147.762802,126.120438 145.565308,126.319099 
	C148.619568,123.737656 148.329071,118.020638 154.243408,120.613159 
	C153.966034,122.145439 153.656036,123.857941 153.688171,125.823257 
	C154.030289,126.076088 154.058151,126.015839 153.760193,125.857483 
	C153.646255,126.149788 153.830276,126.600441 154.014282,127.051102 
z"/>
<path fill="#F6D5B5" opacity="1.000000" stroke="none" 
	d="
M203.880096,121.813797 
	C204.384216,122.501068 204.677063,122.962387 204.909882,123.936287 
	C204.825043,124.847046 205.006561,125.094284 205.394440,125.190575 
	C205.394440,125.190575 205.475311,125.223015 205.493073,125.262878 
	C201.763840,122.760040 198.637085,122.423691 196.654068,127.474319 
	C196.435074,128.032013 194.844437,128.051147 193.889954,128.320053 
	C193.907532,127.298439 193.496719,125.859322 194.015915,125.326569 
	C196.425140,122.854439 199.092209,120.633621 201.998367,118.025391 
	C202.851776,119.845413 203.260284,120.716629 203.880096,121.813797 
z"/>
<path fill="#4F4841" opacity="1.000000" stroke="none" 
	d="
M82.266068,120.190292 
	C83.855469,119.426292 85.223152,118.970352 86.590836,118.514404 
	C86.098213,120.027237 85.693779,121.576324 85.090607,123.043716 
	C84.339539,124.870934 83.424469,126.630745 82.298256,129.017120 
	C81.693817,128.576614 80.363304,127.606987 78.714180,126.405159 
	C79.836319,124.414803 80.940338,122.456581 82.266068,120.190292 
z"/>
<path fill="#46403A" opacity="1.000000" stroke="none" 
	d="
M90.115753,129.359680 
	C91.377464,128.356018 92.651283,127.755959 94.298996,127.188751 
	C94.134369,128.936127 93.897652,130.841385 92.969727,132.309860 
	C92.097977,133.689468 90.496124,134.607727 89.215515,135.728989 
	C88.940063,135.409546 88.664619,135.090103 88.389168,134.770660 
	C88.968735,133.101532 89.548302,131.432419 90.115753,129.359680 
z"/>
<path fill="#4F4841" opacity="1.000000" stroke="none" 
	d="
M188.663391,120.852386 
	C188.651276,122.722908 188.353348,124.559113 187.667191,126.706848 
	C186.504944,127.642403 185.730942,128.266434 184.956924,128.890472 
	C184.405518,128.767120 183.854095,128.643753 183.441101,128.042023 
	C184.329071,125.124382 185.078629,122.685104 185.828171,120.245819 
	C186.677963,120.436577 187.527771,120.627327 188.663391,120.852386 
z"/>
<path fill="#383531" opacity="1.000000" stroke="none" 
	d="
M185.517502,120.406754 
	C185.078629,122.685104 184.329071,125.124382 183.352600,127.760117 
	C183.125671,127.956566 182.892807,127.696823 182.834473,127.215546 
	C182.522934,126.167534 182.269730,125.600815 182.016525,125.034088 
	C183.079971,123.545296 184.143402,122.056488 185.517502,120.406754 
z"/>
<path fill="#F6D5B5" opacity="1.000000" stroke="none" 
	d="
M203.930145,127.020874 
	C203.720139,128.243790 203.146500,129.467575 202.254883,130.835571 
	C199.797821,128.556046 199.862259,127.039589 203.930145,127.020874 
z"/>
<path fill="#F6D5B5" opacity="1.000000" stroke="none" 
	d="
M185.204956,129.116440 
	C185.730942,128.266434 186.504944,127.642403 187.591721,127.099945 
	C187.935669,127.884239 187.966858,128.586960 188.008865,129.641357 
	C187.164124,129.776154 186.308548,129.559280 185.204956,129.116440 
z"/>
<path fill="#4F4841" opacity="1.000000" stroke="none" 
	d="
M181.725830,125.118629 
	C182.269730,125.600815 182.522934,126.167534 182.815842,127.042130 
	C182.550995,127.262970 182.321136,127.357552 181.779144,127.812851 
	C180.988739,127.963348 180.585175,127.934708 180.181610,127.906067 
	C180.599442,127.005096 181.017288,126.104134 181.725830,125.118629 
z"/>
<path fill="#F6D5B5" opacity="1.000000" stroke="none" 
	d="
M179.944275,128.128021 
	C180.585175,127.934708 180.988739,127.963348 181.695984,127.995361 
	C181.408203,128.631042 180.816742,129.263351 179.935730,130.052795 
	C179.646179,130.209946 179.299454,130.375809 179.149445,130.255707 
	C179.235260,129.540405 179.471115,128.945175 179.944275,128.128021 
z"/>
<path fill="#3B3733" opacity="1.000000" stroke="none" 
	d="
M217.017822,131.194733 
	C217.539932,131.400497 217.777176,131.742844 218.014435,132.085175 
	C217.430252,132.347198 216.846054,132.609207 215.981125,132.878571 
	C216.044586,132.367706 216.388763,131.849518 217.017822,131.194733 
z"/>
<path fill="#3B3733" opacity="1.000000" stroke="none" 
	d="
M225.378952,125.880280 
	C224.792953,125.904556 224.464325,125.768166 223.729080,125.279572 
	C224.093750,125.191444 224.865036,125.455528 225.378952,125.880280 
z"/>
<path fill="#242323" opacity="1.000000" stroke="none" 
	d="
M31.361765,108.921799 
	C31.540709,108.541611 32.026817,108.230316 32.805607,107.991608 
	C32.621838,108.373032 32.145382,108.681862 31.361765,108.921799 
z"/>
<path fill="#F6D5B5" opacity="1.000000" stroke="none" 
	d="
M198.488785,118.508537 
	C198.480240,118.486725 198.497330,118.530350 198.488785,118.508537 
z"/>
<path fill="#3B3733" opacity="1.000000" stroke="none" 
	d="
M223.823853,125.934547 
	C223.385803,125.786156 222.970352,125.591705 222.277451,125.198631 
	C222.000000,125.000000 222.000000,124.999695 222.000000,124.999695 
	C222.323471,125.111382 222.646927,125.223068 223.433289,125.566742 
	C223.896179,125.798737 223.846451,125.888489 223.823853,125.934547 
z"/>
<path fill="#F6D5B5" opacity="1.000000" stroke="none" 
	d="
M198.508514,129.514435 
	C198.483688,129.524612 198.533325,129.504242 198.508514,129.514435 
z"/>
<path fill="#FCDBBA" opacity="1.000000" stroke="none" 
	d="
M39.252258,83.597244 
	C38.788567,83.824867 38.442238,83.645569 38.053978,83.161652 
	C38.464573,82.968124 38.917099,83.079224 39.252258,83.597244 
z"/>
<path fill="#FCDBBA" opacity="1.000000" stroke="none" 
	d="
M39.904655,84.563156 
	C39.615860,84.727669 39.335541,84.557053 39.030437,84.124130 
	C39.308147,83.983902 39.610638,84.105965 39.904655,84.563156 
z"/>
<path fill="#3B3733" opacity="1.000000" stroke="none" 
	d="
M222.000000,125.000153 
	C220.678940,125.320305 219.357895,125.640305 218.036835,125.960297 
	C217.982574,125.320366 217.928314,124.680428 217.874054,124.040497 
	C219.136398,124.186104 220.398758,124.331711 221.830551,124.738510 
	C222.000000,124.999695 222.000000,125.000000 222.000000,125.000153 
z"/>
<path fill="#FAD8B7" opacity="1.000000" stroke="none" 
	d="
M205.472168,124.970322 
	C205.006561,125.094284 204.825043,124.847046 204.946396,124.219727 
	C205.342957,124.156471 205.511963,124.409637 205.472168,124.970322 
z"/>
<path fill="#FAD8B7" opacity="1.000000" stroke="none" 
	d="
M154.063126,126.777115 
	C153.830276,126.600441 153.646255,126.149788 153.757233,125.824432 
	C154.072128,126.134193 154.092056,126.318657 154.063126,126.777115 
z"/>
<path fill="#FAD8B7" opacity="1.000000" stroke="none" 
	d="
M170.000000,125.999695 
	C170.000000,124.923676 170.000000,123.847649 170.000000,122.307198 
	C171.130325,122.992699 171.931366,123.478500 173.029556,124.041481 
	C173.273422,124.286659 173.220169,124.454666 172.992432,124.821304 
	C172.076675,125.316948 171.335419,125.613953 170.297073,125.955482 
	C170.000000,126.000000 170.000000,125.999695 170.000000,125.999695 
z"/>
<path fill="#FAD8B7" opacity="1.000000" stroke="none" 
	d="
M170.000000,126.000153 
	C169.674423,126.429390 169.348862,126.858467 169.023285,127.287552 
	C168.916870,127.191727 168.810455,127.095909 168.704025,127.000092 
	C168.982788,126.703453 169.261551,126.406815 169.770157,126.054932 
	C170.000000,125.999695 170.000000,126.000000 170.000000,126.000153 
z"/>
</svg>